<?xml version="1.0" encoding="UTF-8" standalone="no"?>
<svg
   viewBox="0 0 400 512"
   version="1.1"
   id="svg35086"
   sodipodi:docname="plus-color.svg"
   inkscape:version="1.2 (dc2aeda, 2022-05-15)"
   width="400"
   height="512"
   xmlns:inkscape="http://www.inkscape.org/namespaces/inkscape"
   xmlns:sodipodi="http://sodipodi.sourceforge.net/DTD/sodipodi-0.dtd"
   xmlns="http://www.w3.org/2000/svg"
   xmlns:svg="http://www.w3.org/2000/svg">
  <defs
     id="defs35090" />
  <sodipodi:namedview
     id="namedview35088"
     pagecolor="#ffffff"
     bordercolor="#000000"
     borderopacity="0.25"
     inkscape:showpageshadow="2"
     inkscape:pageopacity="0.0"
     inkscape:pagecheckerboard="0"
     inkscape:deskcolor="#d1d1d1"
     showgrid="false"
     inkscape:zoom="2.0566406"
     inkscape:cx="206.64767"
     inkscape:cy="235.57835"
     inkscape:window-width="3440"
     inkscape:window-height="1416"
     inkscape:window-x="0"
     inkscape:window-y="0"
     inkscape:window-maximized="1"
     inkscape:current-layer="svg35086" />
  <path
     d="M 376,224 H 232 V 80 c 0,-8.84 -7.16,-16 -16,-16 h -32 c -8.84,0 -16,7.16 -16,16 V 224 H 24 c -8.84,0 -16,7.16 -16,16 v 32 c 0,8.84 7.16,16 16,16 h 144 v 144 c 0,8.84 7.16,16 16,16 h 32 c 8.84,0 16,-7.16 16,-16 V 288 h 144 c 8.84,0 16,-7.16 16,-16 v -32 c 0,-8.84 -7.16,-16 -16,-16 z"
     id="path35084"
     style="fill:#c54a54;fill-opacity:1;stroke:#000000;stroke-width:15;stroke-dasharray:none;stroke-opacity:1" />
</svg>
