<?xml version="1.0" encoding="UTF-8" standalone="no"?>
<svg
   viewBox="0 0 463 463"
   version="1.1"
   id="svg166"
   sodipodi:docname="plus-square-color-outline.svg"
   inkscape:version="1.2 (dc2aeda, 2022-05-15)"
   width="463"
   height="463"
   xmlns:inkscape="http://www.inkscape.org/namespaces/inkscape"
   xmlns:sodipodi="http://sodipodi.sourceforge.net/DTD/sodipodi-0.dtd"
   xmlns="http://www.w3.org/2000/svg"
   xmlns:svg="http://www.w3.org/2000/svg">
  <defs
     id="defs170" />
  <sodipodi:namedview
     id="namedview168"
     pagecolor="#ffffff"
     bordercolor="#000000"
     borderopacity="0.25"
     inkscape:showpageshadow="2"
     inkscape:pageopacity="0.0"
     inkscape:pagecheckerboard="0"
     inkscape:deskcolor="#d1d1d1"
     showgrid="false"
     inkscape:zoom="2.4199219"
     inkscape:cx="231.61905"
     inkscape:cy="231.61905"
     inkscape:window-width="3440"
     inkscape:window-height="1416"
     inkscape:window-x="0"
     inkscape:window-y="0"
     inkscape:window-maximized="1"
     inkscape:current-layer="svg166" />
  <path
     d="m 359.5,215.5 v 32 c 0,6.6 -5.4,12 -12,12 h -88 v 88 c 0,6.6 -5.4,12 -12,12 h -32 c -6.6,0 -12,-5.4 -12,-12 v -88 h -88 c -6.6,0 -12,-5.4 -12,-12 v -32 c 0,-6.6 5.4,-12 12,-12 h 88 v -88 c 0,-6.6 5.4,-12 12,-12 h 32 c 6.6,0 12,5.4 12,12 v 88 h 88 c 6.6,0 12,5.4 12,12 z m 96,-160 v 352 c 0,26.5 -21.5,48 -48,48 h -352 c -26.5,0 -48,-21.5 -48,-48 V 55.5 C 7.5,29 29,7.5 55.5,7.5 h 352 c 26.5,0 48,21.5 48,48 z m -54,340 v -328 c 0,-3.3 -2.7,-6 -6,-6 h -328 c -3.3,0 -6,2.7 -6,6 v 328 c 0,3.3 2.7,6 6,6 h 328 c 3.3,0 6,-2.7 6,-6 z"
     id="path164"
     style="fill:#c54a54;fill-opacity:1;stroke:#000000;stroke-width:15;stroke-dasharray:none;stroke-opacity:1"
     sodipodi:nodetypes="ssscsssscsssscsssscssssssssssssssssssss" />
</svg>
